<?xml version="1.0" encoding="utf-8"?>
<!-- Generator: Adobe Illustrator 20.0.0, SVG Export Plug-In . SVG Version: 6.00 Build 0)  -->
<svg  width="117px" height="34px" version="1.1" id="Layer_1" xmlns="http://www.w3.org/2000/svg" xmlns:xlink="http://www.w3.org/1999/xlink" x="0px" y="0px"
	 viewBox="0 0 174.7 77.7" style="enable-background:new 0 0 174.7 77.7;" xml:space="preserve">
<style type="text/css">
	
	.st8{fill:#435D7D;}
	.st9{fill:#435D7D;}
	

</style>
<rect x="-49.7" y="93.6" class="st0" width="280.7" height="153.7"/>
<path class="st1" d="M112.6,164.5"/>
<path class="st1" d="M61.7,155.9c0-1.3,1.1-2.4,2.4-2.4c1.3,0,2.4,1,2.4,2.4c0,1.3-1.1,2.4-2.4,2.4
	C62.7,158.2,61.7,157.2,61.7,155.9z M62.1,177.1v-16.9h4v16.9H62.1z"/>
<path class="st1" d="M5.2,155.9c0-1.3,1.1-2.4,2.4-2.4s2.4,1,2.4,2.4c0,1.3-1.1,2.4-2.4,2.4C6.3,158.2,5.2,157.2,5.2,155.9z
	 M5.6,177.1v-14.5l4-2.5v17.1h-4C5.6,177.2,5.6,177.1,5.6,177.1z"/>
<path class="st1" d="M11.5,177.1v-16l4-0.9v2.4c0.8-1.6,2.7-2.7,5.1-2.7c4,0,6.4,2.6,6.4,6.8v10.4h-4v-9.9c0-2.3-1.3-3.8-3.6-3.8
	s-3.9,1.6-3.9,3.9v9.7h-4V177.1z"/>
<path class="st1" d="M33.4,177.1l-7.2-16.9h4.2l4.8,11.5l4.8-11.5h4l-7.2,16.9H33.4z"/>
<path class="st1" d="M42.5,168.7c0-2.5,0.9-4.7,2.7-6.4s4-2.6,6.5-2.6c2.6,0,4.8,0.9,6.5,2.6c1.8,1.7,2.7,3.9,2.7,6.4
	s-0.9,4.7-2.7,6.4s-4,2.6-6.5,2.6c-2.6,0-4.8-0.9-6.5-2.6C43.4,173.3,42.5,171.2,42.5,168.7z M55.4,172.4c1-1,1.5-2.3,1.5-3.8
	s-0.5-2.7-1.5-3.8c-1-1-2.2-1.5-3.7-1.5s-2.7,0.5-3.8,1.5c-1,1-1.5,2.2-1.5,3.8c0,1.5,0.5,2.7,1.5,3.8c1,1,2.2,1.5,3.8,1.5
	C53.2,173.9,54.4,173.4,55.4,172.4z"/>
<path class="st1" d="M83.2,162.6l-2.5,2.6c-1.2-1.2-2.6-1.8-4.3-1.8c-1.5,0-2.7,0.5-3.7,1.5s-1.5,2.3-1.5,3.8s0.5,2.8,1.5,3.8
	s2.2,1.5,3.7,1.5c1.7,0,3.1-0.6,4.3-1.8l2.5,2.6c-1.8,1.9-4.1,2.9-6.8,2.9c-2.6,0-4.8-0.8-6.5-2.5c-1.8-1.7-2.6-3.9-2.6-6.4
	s0.9-4.7,2.6-6.4c1.8-1.7,4-2.6,6.5-2.6C79.1,159.7,81.4,160.7,83.2,162.6z"/>
<g>
	<path class="st1" d="M96,166.8c0-1-0.4-1.9-1.3-2.6c-0.8-0.7-1.8-1.1-3-1.1s-2.3,0.4-3.2,1.1s-1.4,1.6-1.5,2.6H96z M82.9,168.7
		c0-2.7,0.8-4.8,2.5-6.5c1.7-1.6,3.8-2.4,6.4-2.4c2.4,0,4.5,0.8,6,2.4c1.5,1.5,2.2,3.4,2.3,5.6c0,0.2-1.9,1.9-1.9,1.9H86.9
		c0.1,2.7,2.1,4.4,5.1,4.4c1.7,0,3.2-0.6,4.6-1.9l3.7-3.4c1-0.9,6.1-5.1,12.4-1.9c-6.1-0.5-8.6,2.7-13.8,7.6c-2.1,2-4.3,3-7.1,3
		c-2.6,0-4.8-0.8-6.5-2.4s-2.5-3.7-2.5-6.3v-0.1L82.9,168.7L82.9,168.7z"/>
</g>
<g>
	<path class="st2" d="M127.1,160.2h1.7v16.9h-1.7v-3.5c-0.4,1.1-1.2,2-2.4,2.8c-1.2,0.8-2.6,1.1-4.3,1.1c-2.4,0-4.4-0.8-6.1-2.5
		c-1.6-1.7-2.4-3.8-2.4-6.3s0.8-4.6,2.4-6.3s3.7-2.5,6.1-2.5c1.6,0,3.1,0.4,4.3,1.2c1.2,0.8,2,1.7,2.4,2.8
		C127.1,163.9,127.1,160.2,127.1,160.2z M125.3,173.9c1.3-1.4,2-3.1,2-5.3c0-2.1-0.7-3.9-2-5.2c-1.3-1.4-2.9-2.1-4.9-2.1
		c-1.9,0-3.6,0.7-4.9,2.1s-1.9,3.1-1.9,5.2c0,2.1,0.6,3.8,1.9,5.2s2.9,2.1,4.9,2.1C122.4,176,124,175.3,125.3,173.9z"/>
</g>
<path class="st2" d="M132.9,182.7l-1.7,0.8v-23.3h1.7v3.5c0.4-1.1,1.2-2,2.4-2.8s2.7-1.2,4.3-1.2c2.4,0,4.4,0.8,6,2.5
	s2.5,3.8,2.5,6.3s-0.8,4.6-2.5,6.3c-1.6,1.7-3.7,2.5-6,2.5c-1.6,0-3.1-0.4-4.3-1.1c-1.2-0.8-2-1.7-2.4-2.8V182.7z M134.6,163.4
	c-1.3,1.4-2,3.1-2,5.2c0,2.1,0.7,3.9,2,5.3c1.3,1.4,2.9,2,4.9,2c1.9,0,3.6-0.7,4.9-2.1s2-3.1,2-5.2c0-2.1-0.7-3.8-2-5.2
	s-2.9-2.1-4.9-2.1C137.6,161.4,135.9,162.1,134.6,163.4z"/>
<path class="st2" d="M151.4,182.7l-1.7,0.8v-23.3h1.7v3.5c0.4-1.1,1.2-2,2.4-2.8s2.7-1.2,4.3-1.2c2.4,0,4.4,0.8,6,2.5
	s2.5,3.8,2.5,6.3s-0.8,4.6-2.5,6.3c-1.6,1.7-3.7,2.5-6,2.5c-1.6,0-3.1-0.4-4.3-1.1c-1.2-0.8-2-1.7-2.4-2.8V182.7z M153.2,163.4
	c-1.3,1.4-2,3.1-2,5.2c0,2.1,0.7,3.9,2,5.3c1.3,1.4,2.9,2,4.9,2c1.9,0,3.6-0.7,4.9-2.1s2-3.1,2-5.2c0-2.1-0.7-3.8-2-5.2
	s-2.9-2.1-4.9-2.1C156.1,161.4,154.5,162.1,153.2,163.4z"/>
<line class="st3" x1="5.3" y1="185.6" x2="166.1" y2="185.6"/>
<g>
	<path class="st1" d="M10.1,159.9c8.7-6,11.9-7.9,21.3-12.1c12.2-3.2,26.7-6.4,43.9-5.9c-9.5-0.3-16.7,5.3-20.2,18.2
		C32.3,150.5,10.1,159.9,10.1,159.9z"/>
	
		<linearGradient id="SVGID_1_" gradientUnits="userSpaceOnUse" x1="65.4937" y1="117.8869" x2="18.6713" y2="95.0096" gradientTransform="matrix(1 0 0 1 0 44)">
		<stop  offset="0" style="stop-color:#666666"/>
		<stop  offset="1" style="stop-color:#535353"/>
	</linearGradient>
	<path class="st4" d="M10.1,159.9c3.4-2.3,6.7-4.7,10.2-6.7c3.5-2.1,7.2-3.8,11-5.5l0,0l0,0c7.2-1.9,14.4-3.6,21.7-4.6
		c3.7-0.5,7.4-0.9,11.1-1.2c0.9-0.1,1.8-0.1,2.8-0.2c0.9,0,1.9-0.1,2.8-0.1c1.9,0,3.7,0,5.6,0v0.5c-2.4-0.1-4.9,0.3-7.2,1.1
		c-2.3,0.8-4.4,2.2-6.1,4c-1.7,1.7-3.1,3.8-4.2,6c-1.1,2.2-1.9,4.5-2.6,6.9l-0.1,0.2l-0.2-0.1c-0.9-0.3-1.8-0.7-2.7-1
		s-1.8-0.6-2.7-0.9c-1.8-0.6-3.7-1-5.6-1.4c-3.8-0.7-7.6-1-11.4-1c-3.8,0-7.6,0.4-11.4,1c-1.9,0.3-3.8,0.7-5.6,1.2
		C13.7,158.6,11.8,159.2,10.1,159.9z M10.1,159.9c1.8-0.7,3.6-1.3,5.5-1.8c1.8-0.5,3.7-0.9,5.6-1.3c3.8-0.7,7.6-1.1,11.4-1.1
		s7.7,0.3,11.5,1c1.9,0.4,3.8,0.8,5.6,1.3c0.9,0.3,1.8,0.6,2.7,0.9c0.9,0.3,1.8,0.7,2.7,1l-0.3,0.1c0.6-2.4,1.4-4.8,2.5-7
		s2.5-4.3,4.2-6.1s3.9-3.2,6.2-4.1c2.3-0.9,4.9-1.2,7.4-1.2v0.5c-1.8,0-3.7-0.1-5.5,0c-0.9,0-1.8,0.1-2.8,0.1
		c-0.9,0-1.8,0.1-2.8,0.1c-3.7,0.2-7.4,0.6-11,1.1c-7.3,1-14.5,2.7-21.7,4.5l0,0c-3.7,1.7-7.4,3.4-11,5.4
		C16.8,155.3,13.4,157.6,10.1,159.9z"/>
</g>
<g>
	<path class="st1" d="M10.1,159.9c8.5-6.3,11.6-8.4,20.8-12.9c12-3.7,29.5-7.6,46.6-7.8c-9.5,0.1-19.5,6.1-22.4,19.1
		C32,149.6,10.1,159.9,10.1,159.9z"/>
	
		<linearGradient id="SVGID_2_" gradientUnits="userSpaceOnUse" x1="68.2549" y1="116.1375" x2="18.0713" y2="94.1033" gradientTransform="matrix(1 0 0 1 0 44)">
		<stop  offset="0" style="stop-color:#4D4D4D"/>
		<stop  offset="1" style="stop-color:#535353"/>
	</linearGradient>
	<path class="st5" d="M10.1,159.9c3.3-2.5,6.5-4.9,10-7.1c3.4-2.2,7.1-4.1,10.7-5.9l0,0l0,0c7.6-2.3,15.2-4.2,23-5.6
		c1.9-0.3,3.9-0.7,5.9-0.9c2-0.3,3.9-0.5,5.9-0.7c1-0.1,2-0.2,3-0.3s2-0.2,3-0.2c2-0.1,3.9-0.2,5.9-0.2v0.5c-0.7,0-1.3,0.1-2,0.1
		c-0.6,0.1-1.3,0.1-2,0.3c-0.6,0.1-1.3,0.2-1.9,0.4s-1.3,0.4-1.9,0.6c-0.6,0.2-1.2,0.5-1.8,0.8L67,142l-0.9,0.5
		c-0.6,0.3-1.1,0.7-1.7,1.1c-0.6,0.4-1,0.8-1.6,1.2c-0.5,0.4-1,0.9-1.4,1.4c-0.5,0.4-0.9,1-1.3,1.5c-0.4,0.5-0.8,1-1.2,1.6
		c-0.4,0.5-0.7,1.1-1,1.7l-0.5,0.9l-0.4,0.9c-0.3,0.6-0.6,1.2-0.8,1.8s-0.5,1.2-0.6,1.9l-0.5,1.9l-0.1,0.2l-0.2-0.1l-2.7-0.9
		l-1.4-0.4c-0.5-0.1-0.9-0.2-1.4-0.3l-2.8-0.7c-0.9-0.2-1.9-0.3-2.8-0.5l-1.4-0.2c-0.5-0.1-1-0.1-1.4-0.1l-2.9-0.2h-2.9
		c-1,0-1.9,0-2.9,0.1c-1,0-1.9,0.1-2.9,0.2c-0.9,0.1-1.9,0.2-2.9,0.3l-2.8,0.4l-2.8,0.5l-2.8,0.7c-0.9,0.3-1.8,0.5-2.8,0.8
		C13.6,158.5,11.8,159.1,10.1,159.9z M10.1,159.9c1.7-0.8,3.6-1.4,5.4-2c0.9-0.3,1.8-0.5,2.8-0.8l2.8-0.7l2.8-0.6l2.8-0.5
		c0.9-0.2,1.9-0.2,2.9-0.3s1.9-0.2,2.9-0.2s1.9-0.1,2.9-0.1h2.9l2.9,0.2c0.5,0,1,0.1,1.4,0.1l1.4,0.2c0.9,0.2,1.9,0.3,2.8,0.4
		l2.8,0.6c0.5,0.1,0.9,0.2,1.4,0.3l1.4,0.4L55,158l-0.2,0.1l0.5-1.9c0.2-0.7,0.4-1.3,0.6-1.9c0.2-0.6,0.5-1.2,0.8-1.9l0.4-0.9
		l0.5-0.9c0.3-0.6,0.6-1.2,1-1.7c0.4-0.6,0.7-1.1,1.2-1.6c0.4-0.5,0.8-1.1,1.3-1.5c0.5-0.5,0.9-1,1.5-1.4c0.5-0.4,1-0.9,1.6-1.2
		c0.5-0.4,1.1-0.8,1.7-1.1l0.9-0.5l0.9-0.4c0.6-0.3,1.2-0.6,1.9-0.8c0.6-0.3,1.3-0.4,1.9-0.6c0.6-0.2,1.3-0.3,2-0.5
		c0.7-0.1,1.3-0.2,2-0.3s1.3-0.1,2-0.1v0.5c-2,0-3.9,0.1-5.9,0.2c-1,0-2,0.1-2.9,0.2c-1,0.1-2,0.2-2.9,0.3c-2,0.2-3.9,0.4-5.9,0.7
		s-3.9,0.6-5.8,0.9c-7.8,1.3-15.5,3.2-23,5.4l0,0c-3.7,1.8-7.3,3.7-10.8,5.8C16.6,155,13.4,157.4,10.1,159.9z"/>
</g>
<g>
	<path class="st1" d="M10.1,159.9c8.2-6.7,11.2-8.9,20.2-13.8c11.9-4.2,29.1-8.9,46.2-9.9c-9.5,0.6-19.2,6.9-21.5,20.1
		C31.5,148.7,10.1,159.9,10.1,159.9z"/>
	<path class="st6" d="M10.1,159.9c3.1-2.6,6.3-5.2,9.6-7.6c3.3-2.4,6.9-4.4,10.5-6.4l0,0l0,0c7.4-2.6,15-4.9,22.8-6.6
		c1.9-0.4,3.9-0.8,5.8-1.2c1.9-0.4,3.9-0.7,5.8-1c1-0.1,2-0.3,2.9-0.4c1-0.1,2-0.3,2.9-0.4c2-0.2,3.9-0.4,5.9-0.5v0.5
		c-0.7,0.1-1.3,0.1-2,0.2c-0.6,0.1-1.3,0.2-1.9,0.4s-1.3,0.3-1.9,0.5s-1.3,0.4-1.8,0.7c-0.6,0.3-1.2,0.5-1.8,0.8l-0.9,0.5l-0.8,0.5
		c-0.6,0.3-1.1,0.7-1.6,1.1c-0.5,0.4-1,0.8-1.5,1.3c-0.5,0.4-0.9,0.9-1.4,1.4s-0.8,1-1.2,1.5s-0.8,1.1-1.1,1.6
		c-0.4,0.5-0.7,1.1-1,1.7l-0.4,0.9l-0.4,0.9c-0.3,0.6-0.5,1.2-0.7,1.9c-0.2,0.6-0.4,1.3-0.5,1.9L55,156v0.2l-0.2-0.1l-2.8-0.8
		l-1.4-0.4c-0.5-0.1-0.9-0.2-1.4-0.3l-2.8-0.5c-0.9-0.1-1.9-0.2-2.8-0.3l-1.4-0.2c-0.5,0-1,0-1.4-0.1l-2.9-0.1l-2.9,0.1
		c-1,0-1.9,0.1-2.9,0.2c-1,0.1-1.9,0.2-2.8,0.3c-0.9,0.2-1.9,0.2-2.8,0.4l-2.8,0.5l-2.8,0.7l-2.8,0.8c-0.9,0.3-1.8,0.6-2.7,0.9
		C13.6,158.3,11.8,159,10.1,159.9z M10.1,159.9c1.7-0.9,3.5-1.6,5.3-2.3c0.9-0.3,1.8-0.6,2.7-0.9l2.8-0.8l2.8-0.7l2.8-0.6
		c0.9-0.2,1.9-0.3,2.8-0.5s1.9-0.2,2.9-0.3s1.9-0.2,2.9-0.2l2.9-0.1l2.9,0.1c0.5,0,1,0,1.4,0.1l1.4,0.2c1,0.1,1.9,0.2,2.9,0.3
		l2.8,0.5c0.5,0.1,0.9,0.2,1.4,0.3l1.4,0.4l2.8,0.8l-0.2,0.1l0.4-2c0.1-0.7,0.4-1.3,0.5-1.9c0.2-0.6,0.4-1.3,0.7-1.9l0.4-0.9
		l0.5-0.9c0.3-0.6,0.6-1.2,1-1.8s0.7-1.2,1.1-1.7c0.4-0.5,0.8-1.1,1.3-1.6s0.9-1,1.4-1.4c0.5-0.5,1-0.9,1.5-1.3
		c0.5-0.4,1.1-0.8,1.6-1.2l0.8-0.5l0.9-0.5c0.6-0.3,1.2-0.6,1.8-0.9c0.6-0.3,1.2-0.5,1.9-0.7c0.6-0.2,1.3-0.4,1.9-0.5
		c0.6-0.2,1.3-0.2,2-0.4c0.7-0.1,1.3-0.1,2-0.2v0.5c-2,0.1-3.9,0.3-5.9,0.5c-1,0.1-2,0.2-2.9,0.3c-1,0.1-2,0.3-2.9,0.4
		c-2,0.3-3.9,0.6-5.8,1c-1.9,0.3-3.9,0.7-5.8,1.2c-7.7,1.7-15.3,3.9-22.8,6.5l0,0c-3.6,2-7.1,4-10.5,6.3
		C16.4,154.7,13.2,157.3,10.1,159.9z"/>
</g>
<path class="st2" d="M25.7,154.8c8.4-6.4,11.1-8.9,20.3-13.6c12.1-3.8,29.9-7.5,47.1-7.9c-9.5,0.2-19.5,6.3-22.3,19.4
	C47.6,144.3,25.7,154.8,25.7,154.8z"/>
<g>
	<path class="st7" d="M5.6,192.1c0.4,0.5,0.9,0.7,1.6,0.7c0.6,0,0.9-0.3,0.9-0.6c0-0.2-0.1-0.4-0.3-0.6c-0.1-0.1-0.2-0.2-0.3-0.2
		l-0.4-0.2c-0.4-0.2-0.6-0.3-0.9-0.5s-0.4-0.5-0.4-0.8c0-0.4,0.1-0.6,0.4-0.8s0.6-0.3,1-0.3s0.8,0.1,1,0.3v0.7
		c-0.3-0.2-0.6-0.4-1-0.4c-0.5,0-0.8,0.2-0.8,0.5s0.2,0.4,0.5,0.6l0.4,0.2c0.2,0.1,0.3,0.2,0.4,0.2s0.2,0.1,0.3,0.2
		c0.1,0.1,0.2,0.2,0.3,0.3c0.1,0.2,0.2,0.5,0.2,0.8s-0.1,0.6-0.4,0.8c-0.3,0.3-0.6,0.4-1.2,0.4c-0.7,0-1.2-0.2-1.6-0.5v-0.8
		L5.6,192.1L5.6,192.1z"/>
	<path class="st7" d="M9.4,193.3v-4.5h0.7v0.8c0.2-0.5,0.7-0.8,1.3-0.8s1.1,0.3,1.3,0.9c0.3-0.6,0.8-0.9,1.4-0.9
		c0.9,0,1.5,0.7,1.5,1.7v2.9H15v-2.8c0-0.8-0.4-1.2-1-1.2s-1.1,0.5-1.1,1.3v2.7h-0.7v-2.8c0-0.8-0.4-1.2-1-1.2s-1.1,0.5-1.1,1.3v2.7
		L9.4,193.3L9.4,193.3z"/>
	<path class="st7" d="M20.3,189.4v-0.7H21v4.5h-0.7v-0.7c-0.3,0.5-0.8,0.8-1.6,0.8c-0.6,0-1.2-0.2-1.6-0.7s-0.7-1-0.7-1.7
		s0.2-1.3,0.7-1.7c0.4-0.5,1-0.7,1.6-0.7C19.5,188.6,20.1,188.9,20.3,189.4z M19.9,192.3c0.3-0.3,0.5-0.8,0.5-1.3s-0.2-0.9-0.5-1.3
		c-0.3-0.3-0.7-0.5-1.2-0.5s-0.9,0.2-1.2,0.5c-0.3,0.3-0.5,0.8-0.5,1.3s0.2,0.9,0.5,1.3c0.3,0.3,0.7,0.5,1.2,0.5
		C19.2,192.8,19.6,192.6,19.9,192.3z"/>
	<path class="st7" d="M22,193.3v-4.5h0.7v0.8c0.2-0.5,0.7-0.8,1.4-0.8c0.1,0,0.2,0,0.3,0v0.7c-0.1,0-0.3,0-0.5,0
		c-0.7,0-1.2,0.5-1.2,1.3v2.6H22V193.3z"/>
	<path class="st7" d="M25.4,189.4h-0.5v-0.6h0.5V187h0.7v1.7h1.1v0.6h-1.1v2.6c0,0.6,0.2,0.8,0.6,0.8c0.2,0,0.3,0,0.4,0v0.6
		c-0.1,0-0.3,0-0.4,0c-0.3,0-0.6,0-0.9-0.2s-0.5-0.6-0.5-1.2L25.4,189.4L25.4,189.4z"/>
	<path class="st7" d="M32.3,189.4c-0.2-0.3-0.3-0.6-0.3-1s0.1-0.8,0.4-1.1c0.3-0.3,0.7-0.4,1.2-0.4s0.8,0.1,1.1,0.4
		c0.3,0.3,0.4,0.6,0.4,1c0,0.3-0.1,0.6-0.3,0.8H37v0.6h-1.2v0.3c0,0.8-0.1,1.5-0.4,2l1.1,1.2h-0.9l-0.5-0.6c-0.5,0.5-1,0.7-1.8,0.7
		c-0.7,0-1.2-0.2-1.7-0.6c-0.4-0.4-0.6-0.9-0.6-1.5C31,190.4,31.4,189.8,32.3,189.4z M33.3,192.8c0.6,0,1-0.2,1.3-0.6l-0.8-0.9
		c-0.2-0.3-0.4-0.4-0.5-0.5s-0.2-0.2-0.3-0.3c-0.2-0.3-0.2-0.2-0.4-0.5c-0.6,0.3-0.9,0.7-0.9,1.3C31.7,192.2,32.3,192.8,33.3,192.8z
		 M34.9,191.5c0.1-0.4,0.2-0.9,0.2-1.4v-0.3h-1.3v-0.4c0.4-0.1,0.7-0.5,0.7-0.9c0-0.5-0.4-0.9-0.9-0.9c-0.4,0-0.9,0.3-0.9,0.9
		c0,0.2,0,0.4,0.1,0.5c0.2,0.4,0.3,0.6,0.7,1L34.9,191.5z"/>
	<path class="st7" d="M40.9,191c0-0.7,0.2-1.3,0.6-1.7c0.4-0.4,1-0.7,1.6-0.7s1.1,0.2,1.5,0.6c0.4,0.4,0.6,1,0.6,1.6
		c0,0.1,0,0.2,0,0.3h-3.7c0,1,0.7,1.7,1.6,1.7c0.8,0,1.4-0.3,1.7-0.6v0.8c-0.4,0.3-1,0.5-1.7,0.5s-1.2-0.2-1.7-0.6
		C41.2,192.4,40.9,191.8,40.9,191L40.9,191z M44.6,190.6c0-0.4-0.1-0.7-0.4-0.9c-0.3-0.3-0.6-0.4-1-0.4s-0.8,0.1-1.1,0.4
		c-0.3,0.3-0.5,0.6-0.5,0.9H44.6z"/>
	<path class="st7" d="M49.8,189.4v-0.7h0.7v4.5h-0.7v-0.7c-0.3,0.5-0.8,0.8-1.6,0.8c-0.6,0-1.2-0.2-1.6-0.7c-0.4-0.5-0.7-1-0.7-1.7
		s0.2-1.3,0.7-1.7c0.4-0.5,1-0.7,1.6-0.7C49,188.6,49.5,188.9,49.8,189.4z M49.4,192.3c0.3-0.3,0.5-0.8,0.5-1.3s-0.2-0.9-0.5-1.3
		c-0.3-0.3-0.7-0.5-1.2-0.5s-0.9,0.2-1.2,0.5s-0.5,0.8-0.5,1.3s0.2,0.9,0.5,1.3c0.3,0.3,0.7,0.5,1.2,0.5S49.1,192.6,49.4,192.3z"/>
	<path class="st7" d="M51.2,192.1c0.4,0.5,0.9,0.7,1.6,0.7c0.6,0,0.9-0.3,0.9-0.6c0-0.2-0.1-0.4-0.3-0.6c-0.1-0.1-0.2-0.2-0.3-0.2
		l-0.4-0.2c-0.4-0.2-0.6-0.3-0.9-0.5c-0.3-0.2-0.4-0.5-0.4-0.8c0-0.4,0.1-0.6,0.4-0.8c0.3-0.2,0.6-0.3,1-0.3s0.8,0.1,1,0.3v0.7
		c-0.3-0.2-0.6-0.4-1-0.4c-0.5,0-0.8,0.2-0.8,0.5s0.2,0.4,0.5,0.6l0.4,0.2c0.2,0.1,0.3,0.2,0.4,0.2c0.1,0,0.2,0.1,0.3,0.2
		c0.1,0.1,0.2,0.2,0.3,0.3c0.1,0.2,0.2,0.5,0.2,0.8s-0.1,0.6-0.4,0.8c-0.3,0.3-0.6,0.4-1.2,0.4c-0.7,0-1.2-0.2-1.6-0.5v-0.8
		L51.2,192.1L51.2,192.1z"/>
	<path class="st7" d="M55,194.5c0.1,0,0.3,0.1,0.5,0.1s0.3,0,0.4-0.1c0.1-0.1,0.3-0.3,0.4-0.5l0.2-0.5l-1.8-4.6h0.7l1.5,3.8l1.4-3.8
		H59l-2.1,5.3c-0.1,0.3-0.3,0.6-0.4,0.8c-0.2,0.2-0.5,0.3-0.9,0.3c-0.2,0-0.3,0-0.5-0.1L55,194.5L55,194.5z"/>
	<path class="st7" d="M62.8,187.8c-0.2-0.2-0.2-0.5,0-0.6c0.2-0.2,0.5-0.2,0.6,0c0.2,0.2,0.2,0.5,0,0.6C63.3,188,63,188,62.8,187.8z
		 M62.8,193.3v-4.5h0.7v4.5H62.8z"/>
	<path class="st7" d="M64.4,193.3v-4.5h0.7v0.8c0.2-0.5,0.8-0.8,1.5-0.8c1,0,1.7,0.7,1.7,1.7v2.9h-0.7v-2.8c0-0.8-0.5-1.2-1.2-1.2
		c-0.8,0-1.3,0.5-1.3,1.3v2.7L64.4,193.3L64.4,193.3z"/>
	<path class="st7" d="M70.5,193.3l-1.9-4.5h0.7l1.5,3.5l1.5-3.5H73l-1.9,4.5H70.5z"/>
	<path class="st7" d="M73,191c0-0.7,0.2-1.3,0.7-1.7c0.5-0.5,1-0.7,1.7-0.7s1.2,0.2,1.7,0.7s0.7,1,0.7,1.7s-0.2,1.3-0.7,1.7
		c-0.5,0.5-1,0.7-1.7,0.7s-1.2-0.2-1.7-0.7C73.2,192.3,73,191.7,73,191z M73.7,191c0,0.5,0.2,0.9,0.5,1.3c0.3,0.3,0.7,0.5,1.3,0.5
		c0.5,0,0.9-0.2,1.3-0.5c0.3-0.3,0.5-0.8,0.5-1.3s-0.2-0.9-0.5-1.3c-0.3-0.3-0.7-0.5-1.3-0.5c-0.5,0-0.9,0.2-1.3,0.5
		C73.8,190.1,73.7,190.5,73.7,191z"/>
	<path class="st7" d="M78.6,187.8c-0.2-0.2-0.2-0.5,0-0.6c0.2-0.2,0.5-0.2,0.6,0c0.2,0.2,0.2,0.5,0,0.6
		C79.1,188,78.8,188,78.6,187.8z M78.6,193.3v-4.5h0.7v4.5H78.6z"/>
	<path class="st7" d="M84,189.1v0.8c-0.4-0.4-0.9-0.7-1.5-0.7c-0.5,0-0.9,0.2-1.3,0.5c-0.3,0.3-0.5,0.8-0.5,1.3s0.2,0.9,0.5,1.3
		c0.3,0.3,0.7,0.5,1.3,0.5c0.6,0,1.1-0.2,1.5-0.7v0.8c-0.4,0.3-0.9,0.5-1.5,0.5c-0.7,0-1.2-0.2-1.7-0.7s-0.7-1-0.7-1.7
		s0.2-1.3,0.7-1.7c0.5-0.5,1-0.7,1.7-0.7C83.1,188.6,83.6,188.8,84,189.1z"/>
	<path class="st7" d="M84.8,187.8c-0.2-0.2-0.2-0.5,0-0.6c0.2-0.2,0.5-0.2,0.6,0c0.2,0.2,0.2,0.5,0,0.6C85.3,188,85,188,84.8,187.8z
		 M84.8,193.3v-4.5h0.7v4.5H84.8z"/>
	<path class="st7" d="M86.5,193.3v-4.5h0.7v0.8c0.2-0.5,0.8-0.8,1.5-0.8c1,0,1.7,0.7,1.7,1.7v2.9h-0.7v-2.8c0-0.8-0.5-1.2-1.2-1.2
		c-0.8,0-1.3,0.5-1.3,1.3v2.7L86.5,193.3L86.5,193.3z"/>
	<path class="st7" d="M91.4,193.9c0.4,0.5,1,0.7,1.9,0.7c0.5,0,0.9-0.1,1.2-0.3c0.3-0.3,0.5-0.7,0.5-1.4v-0.4
		c-0.3,0.5-0.8,0.8-1.6,0.8c-0.6,0-1.2-0.2-1.6-0.7s-0.7-1-0.7-1.7s0.2-1.2,0.7-1.7c0.4-0.5,1-0.7,1.6-0.7c0.8,0,1.4,0.4,1.6,0.8
		v-0.7h0.7v3.8c0,0.6,0,1.1-0.1,1.4c-0.1,0.3-0.3,0.6-0.6,0.9c-0.4,0.3-0.9,0.5-1.6,0.5c-0.8,0-1.5-0.2-1.9-0.6L91.4,193.9
		L91.4,193.9z M94.5,192.2c0.3-0.3,0.5-0.7,0.5-1.2s-0.2-0.9-0.5-1.2s-0.7-0.5-1.2-0.5s-0.9,0.2-1.2,0.5c-0.3,0.3-0.5,0.7-0.5,1.2
		s0.2,0.9,0.5,1.2s0.7,0.5,1.2,0.5S94.2,192.5,94.5,192.2z"/>
	<path class="st7" d="M100.6,193.3v-3.9h-0.7v-0.6h0.7v-0.4c0-0.6,0.1-1,0.4-1.2c0.2-0.2,0.5-0.3,0.9-0.3c0.1,0,0.3,0,0.4,0v0.6
		c-0.1,0-0.3,0-0.4,0c-0.4,0-0.6,0.2-0.6,0.8v0.5h0.9v0.6h-0.9v3.9L100.6,193.3L100.6,193.3z"/>
	<path class="st7" d="M102.4,191c0-0.7,0.2-1.3,0.7-1.7c0.5-0.5,1-0.7,1.7-0.7s1.2,0.2,1.7,0.7s0.7,1,0.7,1.7s-0.2,1.3-0.7,1.7
		c-0.5,0.5-1,0.7-1.7,0.7s-1.2-0.2-1.7-0.7C102.6,192.3,102.4,191.7,102.4,191z M103.1,191c0,0.5,0.2,0.9,0.5,1.3
		c0.3,0.3,0.7,0.5,1.3,0.5c0.5,0,0.9-0.2,1.3-0.5c0.3-0.3,0.5-0.8,0.5-1.3s-0.2-0.9-0.5-1.3c-0.3-0.3-0.7-0.5-1.3-0.5
		c-0.5,0-0.9,0.2-1.3,0.5C103.2,190.1,103.1,190.5,103.1,191z"/>
	<path class="st7" d="M108,193.3v-4.5h0.7v0.8c0.2-0.5,0.7-0.8,1.4-0.8c0.1,0,0.2,0,0.3,0v0.7c-0.1,0-0.3,0-0.5,0
		c-0.7,0-1.2,0.5-1.2,1.3v2.6H108V193.3z"/>
	<path class="st7" d="M114.3,194.5c0.1,0,0.3,0.1,0.5,0.1s0.3,0,0.4-0.1s0.3-0.3,0.4-0.5l0.2-0.5l-1.8-4.6h0.7l1.5,3.8l1.4-3.8h0.7
		L116,194c-0.1,0.3-0.3,0.6-0.4,0.8c-0.2,0.2-0.5,0.3-0.9,0.3c-0.2,0-0.3,0-0.5-0.1v-0.5H114.3z"/>
	<path class="st7" d="M118.3,191c0-0.7,0.2-1.3,0.7-1.7c0.5-0.5,1-0.7,1.7-0.7s1.2,0.2,1.7,0.7s0.7,1,0.7,1.7s-0.2,1.3-0.7,1.7
		c-0.5,0.5-1,0.7-1.7,0.7s-1.2-0.2-1.7-0.7C118.5,192.3,118.3,191.7,118.3,191z M118.9,191c0,0.5,0.2,0.9,0.5,1.3
		c0.3,0.3,0.7,0.5,1.3,0.5c0.5,0,0.9-0.2,1.3-0.5c0.3-0.3,0.5-0.8,0.5-1.3s-0.2-0.9-0.5-1.3c-0.3-0.3-0.7-0.5-1.3-0.5
		c-0.5,0-0.9,0.2-1.3,0.5C119.1,190.1,118.9,190.5,118.9,191z"/>
	<path class="st7" d="M123.8,188.7h0.7v2.7c0,0.9,0.5,1.3,1.2,1.3c0.8,0,1.2-0.5,1.2-1.3v-2.7h0.7v2.7c0,1.2-0.8,1.9-1.9,1.9
		s-1.9-0.7-1.9-1.9L123.8,188.7L123.8,188.7z"/>
	<path class="st7" d="M128.5,193.3v-4.5h0.7v0.8c0.2-0.5,0.7-0.8,1.4-0.8c0.1,0,0.2,0,0.3,0v0.7c-0.1,0-0.3,0-0.5,0
		c-0.7,0-1.2,0.5-1.2,1.3v2.6h-0.7V193.3z"/>
	<path class="st7" d="M135,193.3V187h0.7v2.4c0.3-0.5,0.8-0.8,1.6-0.8c0.6,0,1.2,0.2,1.6,0.7c0.4,0.5,0.7,1,0.7,1.7
		s-0.2,1.3-0.7,1.7c-0.4,0.5-1,0.7-1.6,0.7c-0.8,0-1.4-0.4-1.6-0.8v0.7L135,193.3L135,193.3z M138.4,192.3c0.3-0.3,0.5-0.8,0.5-1.3
		s-0.2-0.9-0.5-1.3c-0.3-0.3-0.7-0.5-1.2-0.5s-0.9,0.2-1.2,0.5s-0.5,0.8-0.5,1.3s0.2,0.9,0.5,1.3c0.3,0.3,0.7,0.5,1.2,0.5
		C137.8,192.8,138.1,192.6,138.4,192.3z"/>
	<path class="st7" d="M140.3,188.7h0.7v2.7c0,0.9,0.5,1.3,1.2,1.3c0.8,0,1.2-0.5,1.2-1.3v-2.7h0.7v2.7c0,1.2-0.8,1.9-1.9,1.9
		c-1.1,0-1.9-0.7-1.9-1.9V188.7z"/>
	<path class="st7" d="M144.8,192.1c0.4,0.5,0.9,0.7,1.6,0.7c0.6,0,0.9-0.3,0.9-0.6c0-0.2-0.1-0.4-0.3-0.6c-0.1-0.1-0.2-0.2-0.3-0.2
		l-0.4-0.2c-0.4-0.2-0.6-0.3-0.9-0.5c-0.3-0.2-0.4-0.5-0.4-0.8c0-0.4,0.1-0.6,0.4-0.8c0.3-0.2,0.6-0.3,1-0.3s0.8,0.1,1,0.3v0.7
		c-0.3-0.2-0.6-0.4-1-0.4c-0.5,0-0.8,0.2-0.8,0.5s0.2,0.4,0.5,0.6l0.4,0.2c0.2,0.1,0.3,0.2,0.4,0.2c0.1,0,0.2,0.1,0.3,0.2
		c0.1,0.1,0.2,0.2,0.3,0.3c0.1,0.2,0.2,0.5,0.2,0.8s-0.1,0.6-0.4,0.8c-0.3,0.3-0.6,0.4-1.2,0.4c-0.7,0-1.2-0.2-1.6-0.5v-0.8
		L144.8,192.1L144.8,192.1z"/>
	<path class="st7" d="M148.6,187.8c-0.2-0.2-0.2-0.5,0-0.6c0.2-0.2,0.5-0.2,0.6,0c0.2,0.2,0.2,0.5,0,0.6
		C149.1,188,148.8,188,148.6,187.8z M148.6,193.3v-4.5h0.7v4.5H148.6z"/>
	<path class="st7" d="M150.3,193.3v-4.5h0.7v0.8c0.2-0.5,0.8-0.8,1.5-0.8c1,0,1.7,0.7,1.7,1.7v2.9h-0.7v-2.8c0-0.8-0.5-1.2-1.2-1.2
		c-0.8,0-1.3,0.5-1.3,1.3v2.7L150.3,193.3L150.3,193.3z"/>
	<path class="st7" d="M154.8,191c0-0.7,0.2-1.3,0.6-1.7c0.4-0.4,1-0.7,1.6-0.7s1.1,0.2,1.5,0.6c0.4,0.4,0.6,1,0.6,1.6
		c0,0.1,0,0.2,0,0.3h-3.7c0,1,0.7,1.7,1.6,1.7c0.8,0,1.4-0.3,1.7-0.6v0.8c-0.4,0.3-1,0.5-1.7,0.5s-1.2-0.2-1.7-0.6
		C155,192.4,154.8,191.8,154.8,191L154.8,191z M158.5,190.6c0-0.4-0.1-0.7-0.4-0.9c-0.3-0.3-0.6-0.4-1-0.4s-0.8,0.1-1.1,0.4
		c-0.3,0.3-0.5,0.6-0.5,0.9H158.5z"/>
	<path class="st7" d="M159.6,192.1c0.4,0.5,0.9,0.7,1.6,0.7c0.6,0,0.9-0.3,0.9-0.6c0-0.2-0.1-0.4-0.3-0.6c-0.1-0.1-0.2-0.2-0.3-0.2
		l-0.4-0.2c-0.4-0.2-0.6-0.3-0.9-0.5c-0.3-0.2-0.4-0.5-0.4-0.8c0-0.4,0.1-0.6,0.4-0.8c0.3-0.2,0.6-0.3,1-0.3s0.8,0.1,1,0.3v0.7
		c-0.3-0.2-0.6-0.4-1-0.4c-0.5,0-0.8,0.2-0.8,0.5s0.2,0.4,0.5,0.6l0.4,0.2c0.2,0.1,0.3,0.2,0.4,0.2c0.1,0,0.2,0.1,0.3,0.2
		c0.1,0.1,0.2,0.2,0.3,0.3c0.1,0.2,0.2,0.5,0.2,0.8s-0.1,0.6-0.4,0.8c-0.3,0.3-0.6,0.4-1.2,0.4c-0.7,0-1.2-0.2-1.6-0.5v-0.8
		L159.6,192.1L159.6,192.1z"/>
	<path class="st7" d="M163.2,192.1c0.4,0.5,0.9,0.7,1.6,0.7c0.6,0,0.9-0.3,0.9-0.6c0-0.2-0.1-0.4-0.3-0.6c-0.1-0.1-0.2-0.2-0.3-0.2
		l-0.4-0.2c-0.4-0.2-0.6-0.3-0.9-0.5c-0.3-0.2-0.4-0.5-0.4-0.8c0-0.4,0.1-0.6,0.4-0.8c0.3-0.2,0.6-0.3,1-0.3s0.8,0.1,1,0.3v0.7
		c-0.3-0.2-0.6-0.4-1-0.4c-0.5,0-0.8,0.2-0.8,0.5s0.2,0.4,0.5,0.6l0.4,0.2c0.2,0.1,0.3,0.2,0.4,0.2c0.1,0,0.2,0.1,0.3,0.2
		c0.1,0.1,0.2,0.2,0.3,0.3c0.1,0.2,0.2,0.5,0.2,0.8s-0.1,0.6-0.4,0.8c-0.3,0.3-0.6,0.4-1.2,0.4c-0.7,0-1.2-0.2-1.6-0.5v-0.8
		L163.2,192.1L163.2,192.1z"/>
</g>
<g>
	<path class="st1" d="M124.8,27.7"/>
	<path class="st8" d="M82.7,20.6c0-1.1,0.9-2,2-2c1.1,0,2,0.9,2,2c0,1.1-0.9,2-2,2C83.6,22.5,82.7,21.7,82.7,20.6z M83,38.1v-14h3.3
		v14H83z"/>
	<path class="st8" d="M36,20.6c0-1.1,0.9-2,2-2c1.1,0,2,0.9,2,2c0,1.1-0.9,2-2,2C36.9,22.5,36,21.7,36,20.6z M36.3,38.1v-12l3.3-2.1
		v14.1H36.3z"/>
	<path class="st8" d="M41.2,38.1V24.9l3.3-0.7v2c0.7-1.4,2.2-2.3,4.2-2.3c3.3,0,5.3,2.1,5.3,5.6v8.6h-3.3V30c0-1.9-1.1-3.1-3-3.1
		c-1.9,0-3.2,1.3-3.2,3.2v8H41.2z"/>
	<path class="st8" d="M59.3,38.1l-6-14h3.4l4,9.5l3.9-9.5h3.4l-6,14H59.3z"/>
	<path class="st8" d="M66.8,31.2c0-2.1,0.7-3.9,2.2-5.3c1.5-1.4,3.3-2.1,5.4-2.1c2.1,0,3.9,0.7,5.4,2.1c1.5,1.4,2.2,3.2,2.2,5.3
		c0,2.1-0.7,3.9-2.2,5.3c-1.5,1.4-3.3,2.1-5.4,2.1c-2.1,0-3.9-0.7-5.4-2.1C67.6,35,66.8,33.2,66.8,31.2z M77.5,34.3
		c0.8-0.9,1.2-1.9,1.2-3.1c0-1.2-0.4-2.3-1.2-3.1c-0.8-0.9-1.9-1.3-3.1-1.3c-1.2,0-2.3,0.4-3.1,1.3c-0.8,0.8-1.2,1.9-1.2,3.1
		c0,1.2,0.4,2.3,1.2,3.1c0.8,0.8,1.9,1.2,3.1,1.2C75.7,35.5,76.7,35.1,77.5,34.3z"/>
	<path class="st8" d="M100.5,26.1l-2,2.1c-1-1-2.2-1.5-3.5-1.5c-1.2,0-2.2,0.4-3.1,1.2c-0.8,0.8-1.2,1.9-1.2,3.1s0.4,2.3,1.2,3.1
		c0.8,0.8,1.9,1.2,3.1,1.2c1.4,0,2.6-0.5,3.5-1.5l2,2.1c-1.5,1.6-3.4,2.4-5.6,2.4c-2.1,0-3.9-0.7-5.4-2.1c-1.5-1.4-2.2-3.2-2.2-5.3
		s0.7-3.9,2.2-5.3c1.5-1.4,3.3-2.1,5.4-2.1C97.1,23.7,99,24.5,100.5,26.1z"/>
	<g>
		<path class="st8" d="M111.1,29.7c0-0.8-0.4-1.6-1.1-2.1c-0.7-0.6-1.5-0.9-2.5-0.9c-1,0-1.9,0.3-2.7,0.9c-0.7,0.6-1.2,1.3-1.2,2.2
			H111.1z M100.3,31.2c0-2.2,0.7-4,2-5.3c1.4-1.4,3.1-2,5.3-2c2,0,3.7,0.7,5,2c1.2,1.3,1.9,2.8,1.9,4.6c0,0.1-1.6,1.5-1.6,1.5h-9.3
			c0.1,2.2,1.7,3.7,4.2,3.7c1.4,0,2.7-0.5,3.8-1.6l3.1-2.8c0.8-0.8,5.1-4.2,10.3-1.6c-5-0.5-7.1,2.2-11.4,6.3
			c-1.7,1.7-3.5,2.5-5.9,2.5c-2.2,0-4-0.7-5.3-2c-1.4-1.3-2-3-2-5.2V31.2z"/>
	</g>
	
	
	<line class="st10" x1="36" y1="45.1" x2="169" y2="45.1"/>
	
	<g>
		<g>
			<path class="st8" d="M12.5,24.6H7v22.4c0,1,0.8,1.8,1.8,1.8h4.1l0.1-24.2C12.9,24.6,12.7,24.6,12.5,24.6z"/>
			<path class="st8" d="M28,18.7H13.6v5.5l-0.1,24.7H28c1,0,1.8-0.8,1.8-1.8V20.5C29.8,19.6,29,18.7,28,18.7z"/>
		</g>
		<path class="st9" d="M31,21.2c0,0.2,0.1,0.3,0.1,0.5v25.7c0,1.5-1.2,2.7-2.7,2.7H10.7c-0.2,0-0.4,0-0.5-0.1
			c0.2,0.7,0.9,1.3,1.7,1.3h16.9c1.9,0,3.5-1.5,3.5-3.5V22.9C32.3,22.1,31.7,21.4,31,21.2z"/>
		<path class="st1" d="M7.7,24.2"/>
		<ellipse class="st9" cx="10" cy="21.5" rx="2.9" ry="2.7"/>
		<g>
			<g>
				<line class="st9" x1="21.7" y1="22.9" x2="27.4" y2="22.9"/>
				<path class="st9" d="M27.4,23.1h-5.8c-0.1,0-0.2-0.1-0.2-0.2c0-0.1,0.1-0.2,0.2-0.2h5.8c0.1,0,0.2,0.1,0.2,0.2
					C27.6,23,27.5,23.1,27.4,23.1z"/>
			</g>
			<g>
				<line class="st9" x1="21.7" y1="24.5" x2="27.4" y2="24.5"/>
				<path class="st9" d="M27.4,24.7h-5.8c-0.1,0-0.2-0.1-0.2-0.2s0.1-0.2,0.2-0.2h5.8c0.1,0,0.2,0.1,0.2,0.2S27.5,24.7,27.4,24.7z"
					/>
			</g>
		</g>
		<g>
			<g>
				<line class="st9" x1="15.9" y1="27.6" x2="21.6" y2="27.6"/>
				<path class="st9" d="M21.6,27.8h-5.8c-0.1,0-0.2-0.1-0.2-0.2s0.1-0.2,0.2-0.2h5.8c0.1,0,0.2,0.1,0.2,0.2S21.7,27.8,21.6,27.8z"
					/>
			</g>
			<g>
				<line class="st9" x1="15.9" y1="29.2" x2="21.6" y2="29.2"/>
				<path class="st9" d="M21.6,29.4h-5.8c-0.1,0-0.2-0.1-0.2-0.2s0.1-0.2,0.2-0.2h5.8c0.1,0,0.2,0.1,0.2,0.2S21.7,29.4,21.6,29.4z"
					/>
			</g>
		</g>
		<g>
			<g>
				<line class="st9" x1="15.7" y1="34.7" x2="27.2" y2="34.7"/>
				<path class="st9" d="M27.2,34.9H15.7c-0.1,0-0.2-0.1-0.2-0.2c0-0.1,0.1-0.2,0.2-0.2h11.6c0.1,0,0.2,0.1,0.2,0.2
					C27.4,34.8,27.3,34.9,27.2,34.9z"/>
			</g>
			<g>
				<line class="st9" x1="15.7" y1="36.3" x2="27.2" y2="36.3"/>
				<path class="st9" d="M27.2,36.5H15.7c-0.1,0-0.2-0.1-0.2-0.2c0-0.1,0.1-0.2,0.2-0.2h11.6c0.1,0,0.2,0.1,0.2,0.2
					C27.4,36.4,27.3,36.5,27.2,36.5z"/>
			</g>
			<g>
				<line class="st9" x1="15.7" y1="38.1" x2="27.2" y2="38.1"/>
				<path class="st9" d="M27.2,38.4H15.7c-0.1,0-0.2-0.1-0.2-0.2c0-0.1,0.1-0.2,0.2-0.2h11.6c0.1,0,0.2,0.1,0.2,0.2
					C27.4,38.3,27.3,38.4,27.2,38.4z"/>
			</g>
		</g>
		<g>
			<line class="st9" x1="15.8" y1="47.6" x2="27.4" y2="47.6"/>
			<path class="st9" d="M27.4,47.8H15.8c-0.1,0-0.2-0.1-0.2-0.2c0-0.1,0.1-0.2,0.2-0.2h11.6c0.1,0,0.2,0.1,0.2,0.2
				C27.5,47.7,27.5,47.8,27.4,47.8z"/>
		</g>
	</g>
</g>
</svg>
