<svg xmlns="http://www.w3.org/2000/svg" xmlns:xlink="http://www.w3.org/1999/xlink" version="1.1" width="1000" height="1000" viewBox="0 0 1000 1000" xml:space="preserve">
<desc>Created with Fabric.js 3.5.0</desc>
<defs>
</defs>
<rect x="0" y="0" width="100%" height="100%" fill="#ffffff"/>
<g transform="matrix(5.7636 0 0 5.7636 500.0002 500.0003)" id="808919">
<g style="">
		<g transform="matrix(5.2037 0 0 5.2037 -50.2156 8.8464)" id="Layer_1">
<path style="stroke: none; stroke-width: 1; stroke-dasharray: none; stroke-linecap: butt; stroke-dashoffset: 0; stroke-linejoin: miter; stroke-miterlimit: 4; is-custom-font: none; font-file-url: none; fill: rgb(67,93,125); fill-rule: nonzero; opacity: 1;" transform=" translate(-10, -36.7)" d="M 12.5 24.6 H 7 v 22.4 c 0 1 0.8 1.8 1.8 1.8 h 4.1 l 0.1 -24.2 C 12.9 24.6 12.7 24.6 12.5 24.6 z" stroke-linecap="round"/>
</g>
		<g transform="matrix(5.2037 0 0 5.2037 10.4075 -6.2445)" id="Layer_1">
<path style="stroke: none; stroke-width: 1; stroke-dasharray: none; stroke-linecap: butt; stroke-dashoffset: 0; stroke-linejoin: miter; stroke-miterlimit: 4; is-custom-font: none; font-file-url: none; fill: rgb(67,93,125); fill-rule: nonzero; opacity: 1;" transform=" translate(-21.65, -33.8)" d="M 28 18.7 H 13.6 v 5.5 l -0.1 24.7 H 28 c 1 0 1.8 -0.8 1.8 -1.8 V 20.5 C 29.8 19.6 29 18.7 28 18.7 z" stroke-linecap="round"/>
</g>
		<g transform="matrix(5.2037 0 0 5.2037 8.3259 6.5046)" id="Layer_1">
<path style="stroke: none; stroke-width: 1; stroke-dasharray: none; stroke-linecap: butt; stroke-dashoffset: 0; stroke-linejoin: miter; stroke-miterlimit: 4; is-custom-font: none; font-file-url: none; fill: rgb(67,93,125); fill-rule: nonzero; opacity: 1;" transform=" translate(-21.25, -36.25)" d="M 31 21.2 c 0 0.2 0.1 0.3 0.1 0.5 v 25.7 c 0 1.5 -1.2 2.7 -2.7 2.7 H 10.7 c -0.2 0 -0.4 0 -0.5 -0.1 c 0.2 0.7 0.9 1.3 1.7 1.3 h 16.9 c 1.9 0 3.5 -1.5 3.5 -3.5 V 22.9 C 32.3 22.1 31.7 21.4 31 21.2 z" stroke-linecap="round"/>
</g>
		<g transform="matrix(5.2037 0 0 5.2037 -62.1842 -56.1998)" id="Layer_1">
<path style="stroke: none; stroke-width: 1; stroke-dasharray: none; stroke-linecap: butt; stroke-dashoffset: 0; stroke-linejoin: miter; stroke-miterlimit: 4; is-custom-font: none; font-file-url: none; fill: rgb(67,93,125); fill-rule: nonzero; opacity: 1;" transform=" translate(-7.7, -24.2)" d="M 7.7 24.2" stroke-linecap="round"/>
</g>
		<g transform="matrix(5.2037 0 0 5.2037 -50.2158 -70.25)" id="Layer_1">
<ellipse style="stroke: none; stroke-width: 1; stroke-dasharray: none; stroke-linecap: butt; stroke-dashoffset: 0; stroke-linejoin: miter; stroke-miterlimit: 4; is-custom-font: none; font-file-url: none; fill: rgb(67,93,125); fill-rule: nonzero; opacity: 1;" cx="0" cy="0" rx="2.9" ry="2.7"/>
</g>
		<g transform="matrix(5.2037 0 0 5.2037 25.4984 -62.9646)" id="Layer_1">
<line style="stroke: none; stroke-width: 1; stroke-dasharray: none; stroke-linecap: butt; stroke-dashoffset: 0; stroke-linejoin: miter; stroke-miterlimit: 4; is-custom-font: none; font-file-url: none; fill: rgb(67,93,125); fill-rule: nonzero; opacity: 1;" x1="-2.8499999999999996" y1="0" x2="2.8499999999999996" y2="0"/>
</g>
		<g transform="matrix(5.2037 0 0 5.2037 25.2382 -62.9646)" id="Layer_1">
<path style="stroke: none; stroke-width: 1; stroke-dasharray: none; stroke-linecap: butt; stroke-dashoffset: 0; stroke-linejoin: miter; stroke-miterlimit: 4; is-custom-font: none; font-file-url: none; fill: rgb(67,93,125); fill-rule: nonzero; opacity: 1;" transform=" translate(-24.5, -22.9)" d="M 27.4 23.1 h -5.8 c -0.1 0 -0.2 -0.1 -0.2 -0.2 c 0 -0.1 0.1 -0.2 0.2 -0.2 h 5.8 c 0.1 0 0.2 0.1 0.2 0.2 C 27.6 23 27.5 23.1 27.4 23.1 z" stroke-linecap="round"/>
</g>
		<g transform="matrix(5.2037 0 0 5.2037 25.4984 -54.6386)" id="Layer_1">
<line style="stroke: none; stroke-width: 1; stroke-dasharray: none; stroke-linecap: butt; stroke-dashoffset: 0; stroke-linejoin: miter; stroke-miterlimit: 4; is-custom-font: none; font-file-url: none; fill: rgb(67,93,125); fill-rule: nonzero; opacity: 1;" x1="-2.8499999999999996" y1="0" x2="2.8499999999999996" y2="0"/>
</g>
		<g transform="matrix(5.2037 0 0 5.2037 25.2382 -54.6386)" id="Layer_1">
<path style="stroke: none; stroke-width: 1; stroke-dasharray: none; stroke-linecap: butt; stroke-dashoffset: 0; stroke-linejoin: miter; stroke-miterlimit: 4; is-custom-font: none; font-file-url: none; fill: rgb(67,93,125); fill-rule: nonzero; opacity: 1;" transform=" translate(-24.5, -24.5)" d="M 27.4 24.7 h -5.8 c -0.1 0 -0.2 -0.1 -0.2 -0.2 s 0.1 -0.2 0.2 -0.2 h 5.8 c 0.1 0 0.2 0.1 0.2 0.2 S 27.5 24.7 27.4 24.7 z" stroke-linecap="round"/>
</g>
		<g transform="matrix(5.2037 0 0 5.2037 -4.6832 -38.507)" id="Layer_1">
<line style="stroke: none; stroke-width: 1; stroke-dasharray: none; stroke-linecap: butt; stroke-dashoffset: 0; stroke-linejoin: miter; stroke-miterlimit: 4; is-custom-font: none; font-file-url: none; fill: rgb(67,93,125); fill-rule: nonzero; opacity: 1;" x1="-2.8500000000000005" y1="0" x2="2.8500000000000005" y2="0"/>
</g>
		<g transform="matrix(5.2037 0 0 5.2037 -4.9434 -38.5071)" id="Layer_1">
<path style="stroke: none; stroke-width: 1; stroke-dasharray: none; stroke-linecap: butt; stroke-dashoffset: 0; stroke-linejoin: miter; stroke-miterlimit: 4; is-custom-font: none; font-file-url: none; fill: rgb(67,93,125); fill-rule: nonzero; opacity: 1;" transform=" translate(-18.7, -27.6)" d="M 21.6 27.8 h -5.8 c -0.1 0 -0.2 -0.1 -0.2 -0.2 s 0.1 -0.2 0.2 -0.2 h 5.8 c 0.1 0 0.2 0.1 0.2 0.2 S 21.7 27.8 21.6 27.8 z" stroke-linecap="round"/>
</g>
		<g transform="matrix(5.2037 0 0 5.2037 -4.6832 -30.1812)" id="Layer_1">
<line style="stroke: none; stroke-width: 1; stroke-dasharray: none; stroke-linecap: butt; stroke-dashoffset: 0; stroke-linejoin: miter; stroke-miterlimit: 4; is-custom-font: none; font-file-url: none; fill: rgb(67,93,125); fill-rule: nonzero; opacity: 1;" x1="-2.8500000000000005" y1="0" x2="2.8500000000000005" y2="0"/>
</g>
		<g transform="matrix(5.2037 0 0 5.2037 -4.9434 -30.1811)" id="Layer_1">
<path style="stroke: none; stroke-width: 1; stroke-dasharray: none; stroke-linecap: butt; stroke-dashoffset: 0; stroke-linejoin: miter; stroke-miterlimit: 4; is-custom-font: none; font-file-url: none; fill: rgb(67,93,125); fill-rule: nonzero; opacity: 1;" transform=" translate(-18.7, -29.2)" d="M 21.6 29.4 h -5.8 c -0.1 0 -0.2 -0.1 -0.2 -0.2 s 0.1 -0.2 0.2 -0.2 h 5.8 c 0.1 0 0.2 0.1 0.2 0.2 S 21.7 29.4 21.6 29.4 z" stroke-linecap="round"/>
</g>
		<g transform="matrix(5.2037 0 0 5.2037 9.3668 -1.5606)" id="Layer_1">
<line style="stroke: none; stroke-width: 1; stroke-dasharray: none; stroke-linecap: butt; stroke-dashoffset: 0; stroke-linejoin: miter; stroke-miterlimit: 4; is-custom-font: none; font-file-url: none; fill: rgb(67,93,125); fill-rule: nonzero; opacity: 1;" x1="-5.75" y1="0" x2="5.75" y2="0"/>
</g>
		<g transform="matrix(5.2037 0 0 5.2037 9.627 -1.5606)" id="Layer_1">
<path style="stroke: none; stroke-width: 1; stroke-dasharray: none; stroke-linecap: butt; stroke-dashoffset: 0; stroke-linejoin: miter; stroke-miterlimit: 4; is-custom-font: none; font-file-url: none; fill: rgb(67,93,125); fill-rule: nonzero; opacity: 1;" transform=" translate(-21.5, -34.7)" d="M 27.2 34.9 H 15.7 c -0.1 0 -0.2 -0.1 -0.2 -0.2 c 0 -0.1 0.1 -0.2 0.2 -0.2 h 11.6 c 0.1 0 0.2 0.1 0.2 0.2 C 27.4 34.8 27.3 34.9 27.2 34.9 z" stroke-linecap="round"/>
</g>
		<g transform="matrix(5.2037 0 0 5.2037 9.3668 6.7653)" id="Layer_1">
<line style="stroke: none; stroke-width: 1; stroke-dasharray: none; stroke-linecap: butt; stroke-dashoffset: 0; stroke-linejoin: miter; stroke-miterlimit: 4; is-custom-font: none; font-file-url: none; fill: rgb(67,93,125); fill-rule: nonzero; opacity: 1;" x1="-5.75" y1="0" x2="5.75" y2="0"/>
</g>
		<g transform="matrix(5.2037 0 0 5.2037 9.627 6.7653)" id="Layer_1">
<path style="stroke: none; stroke-width: 1; stroke-dasharray: none; stroke-linecap: butt; stroke-dashoffset: 0; stroke-linejoin: miter; stroke-miterlimit: 4; is-custom-font: none; font-file-url: none; fill: rgb(67,93,125); fill-rule: nonzero; opacity: 1;" transform=" translate(-21.5, -36.3)" d="M 27.2 36.5 H 15.7 c -0.1 0 -0.2 -0.1 -0.2 -0.2 c 0 -0.1 0.1 -0.2 0.2 -0.2 h 11.6 c 0.1 0 0.2 0.1 0.2 0.2 C 27.4 36.4 27.3 36.5 27.2 36.5 z" stroke-linecap="round"/>
</g>
		<g transform="matrix(5.2037 0 0 5.2037 9.3668 16.132)" id="Layer_1">
<line style="stroke: none; stroke-width: 1; stroke-dasharray: none; stroke-linecap: butt; stroke-dashoffset: 0; stroke-linejoin: miter; stroke-miterlimit: 4; is-custom-font: none; font-file-url: none; fill: rgb(67,93,125); fill-rule: nonzero; opacity: 1;" x1="-5.75" y1="0" x2="5.75" y2="0"/>
</g>
		<g transform="matrix(5.2037 0 0 5.2037 9.627 16.6524)" id="Layer_1">
<path style="stroke: none; stroke-width: 1; stroke-dasharray: none; stroke-linecap: butt; stroke-dashoffset: 0; stroke-linejoin: miter; stroke-miterlimit: 4; is-custom-font: none; font-file-url: none; fill: rgb(67,93,125); fill-rule: nonzero; opacity: 1;" transform=" translate(-21.5, -38.2)" d="M 27.2 38.4 H 15.7 c -0.1 0 -0.2 -0.1 -0.2 -0.2 c 0 -0.1 0.1 -0.2 0.2 -0.2 h 11.6 c 0.1 0 0.2 0.1 0.2 0.2 C 27.4 38.3 27.3 38.4 27.2 38.4 z" stroke-linecap="round"/>
</g>
		<g transform="matrix(5.2037 0 0 5.2037 10.1474 65.5675)" id="Layer_1">
<line style="stroke: none; stroke-width: 1; stroke-dasharray: none; stroke-linecap: butt; stroke-dashoffset: 0; stroke-linejoin: miter; stroke-miterlimit: 4; is-custom-font: none; font-file-url: none; fill: rgb(67,93,125); fill-rule: nonzero; opacity: 1;" x1="-5.799999999999999" y1="0" x2="5.799999999999999" y2="0"/>
</g>
		<g transform="matrix(5.2037 0 0 5.2037 10.1473 65.5674)" id="Layer_1">
<path style="stroke: none; stroke-width: 1; stroke-dasharray: none; stroke-linecap: butt; stroke-dashoffset: 0; stroke-linejoin: miter; stroke-miterlimit: 4; is-custom-font: none; font-file-url: none; fill: rgb(67,93,125); fill-rule: nonzero; opacity: 1;" transform=" translate(-21.6, -47.6)" d="M 27.4 47.8 H 15.8 c -0.1 0 -0.2 -0.1 -0.2 -0.2 c 0 -0.1 0.1 -0.2 0.2 -0.2 h 11.6 c 0.1 0 0.2 0.1 0.2 0.2 C 27.5 47.7 27.5 47.8 27.4 47.8 z" stroke-linecap="round"/>
</g>
</g>
</g>
</svg>